<?xml version="1.0" encoding="UTF-8" standalone="no"?>


<svg
   version="1.1"
   id="svg2"
   xml:space="preserve"
   width="2118.4546"
   height="268.86279"
   viewBox="0 0 2118.4546 268.86279"
   
   
   
   
   xmlns="http://www.w3.org/2000/svg"
   ><defs
     id="defs6"><clipPath
       clipPathUnits="userSpaceOnUse"
       id="clipPath16"><path
         d="M 0,323.296 H 1673.789 V 0 H 0 Z"
         id="path14" /></clipPath></defs><g
     id="g8"
     
     
     transform="matrix(1.3333333,0,0,-1.3333333,-56.632132,349.96199)"><g
       id="g10"><g
         id="g12"
         clip-path="url(#clipPath16)"><g
           id="g18"
           transform="translate(252.5897,166.4386)"><path
             d="m 0,0 c 0,3.463 -0.695,6.305 -2.079,8.524 -1.387,2.215 -3.258,3.95 -5.613,5.198 -2.358,1.247 -5.026,2.079 -8.004,2.494 -2.983,0.416 -6.065,0.624 -9.252,0.624 h -15.593 v -34.72 h 14.969 c 3.327,0 6.514,0.276 9.564,0.832 3.047,0.552 5.785,1.523 8.212,2.911 2.423,1.384 4.33,3.222 5.717,5.509 C -0.695,-6.341 0,-3.466 0,0 m 35.551,0.208 c 0,-8.595 -1.594,-15.836 -4.781,-21.726 -3.191,-5.893 -7.485,-10.639 -12.89,-14.242 -5.406,-3.605 -11.643,-6.237 -18.711,-7.899 -7.069,-1.663 -14.417,-2.496 -22.038,-2.496 h -17.672 v -55.509 H -76.092 V 45.531 h 54.055 c 8.036,0 15.556,-0.8 22.557,-2.391 6.997,-1.595 13.098,-4.158 18.295,-7.693 5.198,-3.534 9.284,-8.179 12.267,-13.929 2.978,-5.753 4.469,-12.858 4.469,-21.31"
             style="fill:#007eea;fill-opacity:1;fill-rule:nonzero;stroke:none"
             id="path20" /></g><g
           id="g22"
           transform="translate(346.7378,172.6754)"><path
             d="m 0,0 -18.711,-50.52 h 37.006 z m 39.501,-107.901 -11.434,28.898 h -56.966 l -10.81,-28.898 h -38.67 l 61.747,147.195 h 34.511 l 61.124,-147.195 z"
             style="fill:#007eea;fill-opacity:1;fill-rule:nonzero;stroke:none"
             id="path24" /></g><g
           id="g26"
           transform="translate(511.1165,166.8545)"><path
             d="m 0,0 c 0,3.463 -0.734,6.27 -2.196,8.42 -1.462,2.148 -3.343,3.81 -5.639,4.99 -2.3,1.176 -4.876,1.975 -7.732,2.391 -2.855,0.415 -5.606,0.623 -8.251,0.623 h -19.01 V -17.88 h 16.922 c 2.923,0 5.918,0.241 8.985,0.728 3.063,0.484 5.847,1.351 8.355,2.599 2.508,1.247 4.561,3.047 6.162,5.406 C -0.802,-6.792 0,-3.742 0,0 m 1.455,-102.08 -31.958,58.421 H -42.62 V -102.08 H -77.339 V 45.115 h 56.133 c 7.069,0 13.962,-0.728 20.686,-2.183 6.722,-1.455 12.75,-3.917 18.088,-7.381 5.334,-3.466 9.596,-8.04 12.786,-13.721 3.186,-5.685 4.781,-12.754 4.781,-21.207 0,-9.979 -2.702,-18.366 -8.108,-25.155 -5.405,-6.793 -12.89,-11.643 -22.453,-14.553 l 38.462,-62.995 z"
             style="fill:#007eea;fill-opacity:1;fill-rule:nonzero;stroke:none"
             id="path28" /></g><g
           id="g30"
           transform="translate(658.2821,64.7746)"><path
             d="m 0,0 -54.678,67.776 h -0.416 V 0 h -34.719 v 147.195 h 34.719 V 87.319 h 0.624 l 52.599,59.876 H 42.62 L -20.79,79.419 46.362,0 Z"
             style="fill:#007eea;fill-opacity:1;fill-rule:nonzero;stroke:none"
             id="path32" /></g><g
           id="g34"
           transform="translate(714.2454,64.7746)"><path
             d="M 0,0 V 147.195 H 98.961 V 117.256 H 34.304 V 89.398 H 95.427 V 60.916 H 34.304 V 30.354 h 68.399 V 0 Z"
             style="fill:#007eea;fill-opacity:1;fill-rule:nonzero;stroke:none"
             id="path36" /></g><g
           id="g38"
           transform="translate(911.8527,166.8545)"><path
             d="m 0,0 c 0,3.463 -0.734,6.27 -2.196,8.42 -1.462,2.148 -3.343,3.81 -5.639,4.99 -2.3,1.176 -4.876,1.975 -7.731,2.391 -2.856,0.415 -5.607,0.623 -8.251,0.623 H -42.828 V -17.88 h 16.921 c 2.924,0 5.92,0.241 8.986,0.728 3.063,0.484 5.847,1.351 8.355,2.599 2.508,1.247 4.561,3.047 6.162,5.406 C -0.802,-6.792 0,-3.742 0,0 m 1.456,-102.08 -31.959,58.421 H -42.62 V -102.08 H -77.339 V 45.115 h 56.134 c 7.068,0 13.961,-0.728 20.685,-2.183 6.721,-1.455 12.75,-3.917 18.088,-7.381 5.334,-3.466 9.596,-8.04 12.786,-13.721 3.186,-5.685 4.781,-12.754 4.781,-21.207 0,-9.979 -2.702,-18.366 -8.108,-25.155 -5.405,-6.793 -12.889,-11.643 -22.453,-14.553 l 38.462,-62.995 z"
             style="fill:#007eea;fill-opacity:1;fill-rule:nonzero;stroke:none"
             id="path40" /></g><g
           id="g42"
           transform="translate(1045.5105,173.7149)"><path
             d="m 0,0 c -3.051,3.879 -7.036,6.965 -11.954,9.252 -4.922,2.287 -9.668,3.43 -14.242,3.43 -2.358,0 -4.749,-0.208 -7.173,-0.623 -2.426,-0.416 -4.609,-1.215 -6.549,-2.391 -1.942,-1.179 -3.57,-2.703 -4.885,-4.574 -1.319,-1.871 -1.975,-4.262 -1.975,-7.173 0,-2.494 0.52,-4.573 1.559,-6.237 1.04,-1.663 2.564,-3.119 4.574,-4.365 2.007,-1.248 4.398,-2.392 7.173,-3.431 2.771,-1.04 5.889,-2.115 9.355,-3.222 4.99,-1.663 10.187,-3.503 15.593,-5.51 5.405,-2.011 10.324,-4.677 14.761,-8.004 4.434,-3.327 8.108,-7.452 11.018,-12.371 2.911,-4.921 4.367,-11.054 4.367,-18.398 0,-8.456 -1.56,-15.768 -4.678,-21.934 -3.119,-6.169 -7.312,-11.262 -12.578,-15.281 -5.27,-4.021 -11.298,-7.001 -18.088,-8.94 -6.792,-1.939 -13.793,-2.91 -20.998,-2.91 -10.534,0 -20.722,1.838 -30.561,5.509 -9.843,3.671 -18.02,8.904 -24.533,15.696 l 23.285,23.702 c 3.603,-4.438 8.349,-8.145 14.242,-11.123 5.889,-2.983 11.746,-4.47 17.567,-4.47 2.631,0 5.197,0.276 7.693,0.832 2.494,0.552 4.678,1.454 6.548,2.702 1.871,1.248 3.359,2.91 4.47,4.989 1.108,2.079 1.664,4.575 1.664,7.485 0,2.771 -0.695,5.127 -2.079,7.068 -1.388,1.94 -3.362,3.708 -5.925,5.303 -2.567,1.591 -5.753,3.046 -9.564,4.366 -3.814,1.315 -8.144,2.735 -12.994,4.261 -4.713,1.524 -9.323,3.327 -13.825,5.406 -4.507,2.079 -8.524,4.746 -12.059,8.004 -3.534,3.255 -6.376,7.205 -8.523,11.85 -2.151,4.642 -3.223,10.292 -3.223,16.944 0,8.177 1.663,15.177 4.989,20.998 3.327,5.822 7.693,10.604 13.098,14.346 5.406,3.742 11.503,6.477 18.295,8.212 6.79,1.732 13.651,2.599 20.582,2.599 8.317,0 16.805,-1.527 25.468,-4.574 8.662,-3.05 16.25,-7.556 22.766,-13.514 z"
             style="fill:#007eea;fill-opacity:1;fill-rule:nonzero;stroke:none"
             id="path44" /></g><g
           id="g46"
           transform="translate(1162.7336,110.9292)"><path
             d="m 0,0 c 0,6.097 -2.287,10.323 -6.86,12.682 -4.575,2.355 -10.676,3.534 -18.296,3.534 h -19.751 v -33.68 h 19.959 c 2.771,0 5.646,0.24 8.628,0.727 2.979,0.485 5.681,1.352 8.107,2.599 2.425,1.248 4.399,3.015 5.926,5.302 C -0.763,-6.549 0,-3.606 0,0 m -4.781,58.421 c 0,4.989 -1.908,8.627 -5.718,10.914 -3.814,2.287 -9.46,3.431 -16.944,3.431 H -44.907 V 42.412 h 19.127 c 6.653,0 11.815,1.351 15.488,4.054 3.671,2.703 5.511,6.685 5.511,11.955 M 35.551,-3.327 c 0,-8.04 -1.594,-14.796 -4.782,-20.27 -3.19,-5.477 -7.416,-9.875 -12.681,-13.202 -5.27,-3.327 -11.263,-5.717 -17.984,-7.172 -6.725,-1.456 -13.618,-2.184 -20.686,-2.184 H -79.211 V 101.04 h 58.629 c 5.682,0 11.503,-0.591 17.463,-1.767 5.958,-1.179 11.364,-3.19 16.216,-6.029 4.851,-2.842 8.801,-6.689 11.851,-11.539 3.048,-4.853 4.574,-11.018 4.574,-18.503 0,-8.18 -2.219,-14.937 -6.653,-20.27 C 18.432,37.594 12.61,33.749 5.406,31.393 v -0.416 c 4.158,-0.695 8.072,-1.975 11.746,-3.846 3.671,-1.871 6.86,-4.262 9.564,-7.172 2.702,-2.912 4.849,-6.309 6.445,-10.188 1.591,-3.882 2.39,-8.247 2.39,-13.098"
             style="fill:#007eea;fill-opacity:1;fill-rule:nonzero;stroke:none"
             id="path48" /></g><g
           id="g50"
           transform="translate(1336.5681,96.0644)"><path
             d="m 0,0 c -2.981,-7.277 -7.244,-13.514 -12.786,-18.711 -5.544,-5.198 -12.233,-9.252 -20.062,-12.163 -7.832,-2.91 -16.529,-4.366 -26.091,-4.366 -9.704,0 -18.435,1.456 -26.196,4.366 -7.764,2.911 -14.345,6.965 -19.751,12.163 -5.405,5.197 -9.563,11.434 -12.474,18.711 -2.91,7.277 -4.366,15.349 -4.366,24.22 v 91.685 h 35.343 V 27.131 c 0,-4.022 0.52,-7.832 1.56,-11.435 1.039,-3.606 2.631,-6.828 4.781,-9.667 2.148,-2.842 4.99,-5.094 8.524,-6.757 3.535,-1.664 7.796,-2.495 12.786,-2.495 4.99,0 9.252,0.831 12.787,2.495 3.533,1.663 6.408,3.915 8.627,6.757 2.215,2.839 3.81,6.061 4.782,9.667 0.968,3.603 1.455,7.413 1.455,11.435 v 88.774 H 4.471 V 24.22 C 4.471,15.349 2.979,7.277 0,0"
             style="fill:#007eea;fill-opacity:1;fill-rule:nonzero;stroke:none"
             id="path52" /></g><g
           id="g54"
           transform="translate(1443.858,166.8545)"><path
             d="m 0,0 c 0,3.463 -0.734,6.27 -2.196,8.42 -1.462,2.148 -3.343,3.81 -5.639,4.99 -2.3,1.176 -4.876,1.975 -7.731,2.391 -2.856,0.415 -5.607,0.623 -8.251,0.623 H -42.828 V -17.88 h 16.922 c 2.923,0 5.919,0.241 8.985,0.728 3.063,0.484 5.847,1.351 8.355,2.599 2.508,1.247 4.561,3.047 6.162,5.406 C -0.802,-6.792 0,-3.742 0,0 m 1.456,-102.08 -31.959,58.421 H -42.62 V -102.08 H -77.339 V 45.115 h 56.134 c 7.068,0 13.961,-0.728 20.685,-2.183 6.722,-1.455 12.75,-3.917 18.088,-7.381 5.334,-3.466 9.596,-8.04 12.786,-13.721 3.186,-5.685 4.781,-12.754 4.781,-21.207 0,-9.979 -2.702,-18.366 -8.108,-25.155 -5.405,-6.793 -12.889,-11.643 -22.453,-14.553 l 38.462,-62.995 z"
             style="fill:#007eea;fill-opacity:1;fill-rule:nonzero;stroke:none"
             id="path56" /></g><g
           id="g58"
           transform="translate(1606.0541,64.5665)"><path
             d="m 0,0 c -9.635,-2.355 -20.133,-3.534 -31.497,-3.534 -11.782,0 -22.628,1.871 -32.536,5.613 -9.911,3.743 -18.435,9.008 -25.572,15.801 -7.14,6.789 -12.718,14.934 -16.737,24.428 -4.021,9.493 -6.028,20.063 -6.028,31.705 0,11.779 2.043,22.454 6.133,32.017 4.086,9.564 9.735,17.704 16.944,24.428 7.204,6.722 15.66,11.884 25.363,15.49 9.701,3.602 20.167,5.405 31.394,5.405 11.642,0 22.454,-1.767 32.432,-5.302 9.979,-3.534 18.088,-8.283 24.325,-14.24 L 1.767,106.238 c -3.465,4.019 -8.04,7.309 -13.721,9.875 -5.685,2.564 -12.129,3.847 -19.335,3.847 -6.237,0 -11.99,-1.143 -17.255,-3.43 -5.27,-2.288 -9.843,-5.477 -13.722,-9.564 -3.882,-4.09 -6.897,-8.94 -9.044,-14.553 -2.15,-5.614 -3.222,-11.747 -3.222,-18.4 0,-6.792 0.967,-13.029 2.91,-18.711 1.939,-5.685 4.814,-10.571 8.628,-14.657 3.811,-4.09 8.524,-7.276 14.137,-9.563 5.614,-2.287 12.024,-3.43 19.231,-3.43 4.158,0 8.109,0.311 11.851,0.935 3.742,0.624 7.205,1.628 10.395,3.014 v 26.82 H -35.447 V 87.112 H 25.261 V 9.148 C 18.052,5.406 9.632,2.355 0,0"
             style="fill:#007eea;fill-opacity:1;fill-rule:nonzero;stroke:none"
             id="path60" /></g><g
           id="g62"
           transform="translate(158.4246,84.1106)"><path
             d="m 0,0 c -3.858,0 -5.923,1.488 -7.583,2.681 -1.453,1.045 -2.6,1.871 -5.067,1.871 -2.47,0 -3.617,-0.826 -5.069,-1.871 C -19.379,1.486 -21.445,0 -25.302,0 c -3.855,0 -5.92,1.488 -7.58,2.682 -1.45,1.046 -2.596,1.87 -5.062,1.87 -2.465,0 -3.614,-0.826 -5.064,-1.87 C -44.667,1.488 -46.734,0 -50.59,0 c -3.855,0 -5.92,1.488 -7.58,2.682 -1.452,1.046 -2.597,1.87 -5.063,1.87 -2.464,0 -3.61,-0.826 -5.06,-1.87 C -69.952,1.488 -72.016,0 -75.872,0 c -3.855,0 -5.92,1.488 -7.578,2.682 -1.451,1.046 -2.597,1.87 -5.061,1.87 -2.465,0 -3.611,-0.826 -5.061,-1.87 C -95.231,1.488 -97.295,0 -101.151,0 c -3.855,0 -5.92,1.488 -7.579,2.682 -1.45,1.046 -2.596,1.87 -5.061,1.87 -1.191,0 -2.154,0.963 -2.154,2.154 0,1.19 0.963,2.154 2.154,2.154 3.855,0 5.92,-1.488 7.579,-2.683 1.45,-1.045 2.596,-1.869 5.061,-1.869 2.466,0 3.611,0.825 5.062,1.869 1.658,1.195 3.723,2.683 7.578,2.683 3.856,0 5.919,-1.488 7.578,-2.683 1.45,-1.045 2.596,-1.869 5.061,-1.869 2.466,0 3.612,0.825 5.062,1.869 1.658,1.195 3.723,2.683 7.577,2.683 3.857,0 5.922,-1.488 7.582,-2.683 1.45,-1.045 2.597,-1.869 5.061,-1.869 2.469,0 3.614,0.825 5.066,1.871 1.659,1.194 3.725,2.681 7.58,2.681 3.856,0 5.92,-1.488 7.58,-2.683 1.451,-1.045 2.596,-1.869 5.062,-1.869 2.468,0 3.616,0.825 5.067,1.869 1.66,1.195 3.728,2.683 7.585,2.683 3.857,0 5.923,-1.488 7.583,-2.681 C -3.614,5.133 -2.467,4.308 0,4.308 1.189,4.308 2.154,3.344 2.154,2.154 2.154,0.963 1.189,0 0,0"
             style="fill:#1f191a;fill-opacity:1;fill-rule:nonzero;stroke:none"
             id="path64" /></g><g
           id="g66"
           transform="translate(204.0975,261.9378)"><path
             d="m 0,0 h 6.297 l -13,-37.121 h -6.399 L -26.051,0 h 6.246 l 7.744,-23.08 c 0.407,-1.101 0.838,-2.518 1.295,-4.253 0.457,-1.735 0.753,-3.026 0.889,-3.872 0.22,1.286 0.559,2.776 1.016,4.469 0.457,1.692 0.829,2.945 1.117,3.757 z"
             style="fill:#1f191a;fill-opacity:1;fill-rule:nonzero;stroke:none"
             id="path68" /></g><path
           d="m 215.295,261.938 h 6.068 v -37.121 h -6.068 z"
           style="fill:#1f191a;fill-opacity:1;fill-rule:nonzero;stroke:none"
           id="path70" /><g
           id="g72"
           transform="translate(252.5682,234.8968)"><path
             d="m 0,0 c 0,-3.301 -1.193,-5.891 -3.58,-7.77 -2.387,-1.878 -5.679,-2.818 -9.877,-2.818 -4.198,0 -7.634,0.651 -10.309,1.955 v 5.738 c 1.693,-0.795 3.492,-1.421 5.396,-1.878 1.904,-0.457 3.677,-0.686 5.319,-0.686 2.404,0 4.177,0.457 5.32,1.371 1.142,0.914 1.713,2.141 1.713,3.682 0,1.387 -0.524,2.564 -1.574,3.529 -1.05,0.965 -3.216,2.107 -6.5,3.428 -3.386,1.371 -5.772,2.936 -7.16,4.697 -1.388,1.76 -2.082,3.876 -2.082,6.348 0,3.097 1.1,5.535 3.301,7.312 2.2,1.778 5.154,2.666 8.861,2.666 3.555,0 7.092,-0.779 10.613,-2.336 l -1.929,-4.951 c -3.301,1.388 -6.246,2.082 -8.836,2.082 -1.964,0 -3.453,-0.428 -4.469,-1.282 -1.016,-0.855 -1.523,-1.985 -1.523,-3.39 0,-0.965 0.203,-1.79 0.609,-2.475 0.406,-0.686 1.075,-1.333 2.006,-1.943 0.93,-0.609 2.606,-1.413 5.027,-2.412 2.725,-1.134 4.723,-2.192 5.992,-3.174 1.27,-0.982 2.201,-2.09 2.793,-3.326 C -0.296,3.131 0,1.676 0,0"
             style="fill:#1f191a;fill-opacity:1;fill-rule:nonzero;stroke:none"
             id="path74" /></g><path
           d="m 259.754,261.938 h 6.068 v -37.121 h -6.068 z"
           style="fill:#1f191a;fill-opacity:1;fill-rule:nonzero;stroke:none"
           id="path76" /><g
           id="g78"
           transform="translate(288.4452,224.8167)"><path
             d="m 0,0 h -6.068 v 31.916 h -10.918 v 5.205 H 10.918 V 31.916 H 0 Z"
             style="fill:#1f191a;fill-opacity:1;fill-rule:nonzero;stroke:none"
             id="path80" /></g><g
           id="g82"
           transform="translate(333.742,244.9515)"><path
             d="m 0,0 h 13.66 v -18.637 c -2.234,-0.728 -4.38,-1.244 -6.436,-1.549 -2.057,-0.304 -4.279,-0.457 -6.665,-0.457 -5.621,0 -9.954,1.664 -13,4.99 -3.047,3.326 -4.571,8.019 -4.571,14.079 0,5.975 1.718,10.651 5.155,14.028 3.436,3.377 8.167,5.066 14.193,5.066 3.876,0 7.549,-0.746 11.019,-2.235 l -2.132,-5.053 c -3.014,1.388 -6.027,2.082 -9.039,2.082 -3.961,0 -7.093,-1.244 -9.395,-3.732 -2.302,-2.488 -3.453,-5.891 -3.453,-10.207 0,-4.537 1.037,-7.985 3.11,-10.347 2.074,-2.361 5.057,-3.542 8.95,-3.542 1.964,0 4.063,0.245 6.297,0.737 v 9.572 H 0 Z"
             style="fill:#1f191a;fill-opacity:1;fill-rule:nonzero;stroke:none"
             id="path84" /></g><g
           id="g86"
           transform="translate(362.3827,244.6722)"><path
             d="m 0,0 h 4.215 c 2.827,0 4.875,0.524 6.144,1.574 1.27,1.05 1.905,2.607 1.905,4.672 0,2.099 -0.686,3.606 -2.057,4.52 -1.371,0.914 -3.436,1.371 -6.195,1.371 L 0,12.137 Z M 0,-5.027 V -19.855 H -6.068 V 17.266 H 4.418 c 4.79,0 8.336,-0.898 10.639,-2.692 2.301,-1.794 3.453,-4.503 3.453,-8.125 0,-4.621 -2.404,-7.913 -7.211,-9.877 L 21.785,-19.855 H 14.879 L 5.992,-5.027 Z"
             style="fill:#1f191a;fill-opacity:1;fill-rule:nonzero;stroke:none"
             id="path88" /></g><g
           id="g90"
           transform="translate(410.5487,224.8167)"><path
             d="M 0,0 H -20.998 V 37.121 H 0 V 31.992 H -14.93 V 21.887 H -0.939 V 16.809 H -14.93 V 5.154 H 0 Z"
             style="fill:#1f191a;fill-opacity:1;fill-rule:nonzero;stroke:none"
             id="path92" /></g><g
           id="g94"
           transform="translate(436.2948,240.3558)"><path
             d="m 0,0 -3.479,10.105 c -0.253,0.677 -0.605,1.744 -1.053,3.2 -0.449,1.455 -0.758,2.522 -0.927,3.199 -0.457,-2.082 -1.126,-4.359 -2.006,-6.83 L -10.816,0 Z M 5.307,-15.539 1.6,-5.23 h -14.194 l -3.631,-10.309 h -6.398 l 13.889,37.273 h 6.601 l 13.889,-37.273 z"
             style="fill:#1f191a;fill-opacity:1;fill-rule:nonzero;stroke:none"
             id="path96" /></g><g
           id="g98"
           transform="translate(465.7733,224.8167)"><path
             d="m 0,0 h -6.068 v 31.916 h -10.918 v 5.205 H 10.918 V 31.916 H 0 Z"
             style="fill:#1f191a;fill-opacity:1;fill-rule:nonzero;stroke:none"
             id="path100" /></g><g
           id="g102"
           transform="translate(503.3768,224.8167)"><path
             d="M 0,0 H -20.998 V 37.121 H 0 V 31.992 H -14.93 V 21.887 H -0.939 V 16.809 H -14.93 V 5.154 H 0 Z"
             style="fill:#1f191a;fill-opacity:1;fill-rule:nonzero;stroke:none"
             id="path104" /></g><g
           id="g106"
           transform="translate(517.4686,244.6722)"><path
             d="m 0,0 h 4.215 c 2.827,0 4.875,0.524 6.144,1.574 1.27,1.05 1.905,2.607 1.905,4.672 0,2.099 -0.686,3.606 -2.057,4.52 -1.371,0.914 -3.436,1.371 -6.195,1.371 L 0,12.137 Z M 0,-5.027 V -19.855 H -6.068 V 17.266 H 4.418 c 4.79,0 8.336,-0.898 10.639,-2.692 2.301,-1.794 3.453,-4.503 3.453,-8.125 0,-4.621 -2.404,-7.913 -7.211,-9.877 L 21.785,-19.855 H 14.879 L 5.992,-5.027 Z"
             style="fill:#1f191a;fill-opacity:1;fill-rule:nonzero;stroke:none"
             id="path108" /></g><g
           id="g110"
           transform="translate(133.2721,127.3999)"><path
             d="M 0,0 C 4.663,0.907 8.992,2.747 12.792,5.32 L 24.574,-6.462 C 17.581,-11.855 9.173,-15.472 0,-16.667 Z M 0,18.112 6.627,11.485 C 4.578,10.277 2.355,9.348 0,8.731 Z m 0,9.304 h 5.048 l 9.181,-9.181 c -1.408,-1.847 -3.05,-3.5 -4.889,-4.917 L 0,22.658 Z m 0,3.92 0.564,0.564 1.27,-1.27 H 0 Z m 0,6.251 H 1.705 L 0.564,36.446 0,37.01 Z m 0,8.134 9.247,9.248 c 1.853,-1.415 3.508,-3.064 4.927,-4.913 L 4.919,40.802 H 0 Z M 0,59.487 C 2.316,58.88 4.505,57.972 6.527,56.794 L 0,50.267 Z m 9.465,-18.685 6.539,6.539 c 1.188,-2.025 2.104,-4.218 2.718,-6.539 z M 18.722,27.416 C 18.117,25.125 17.218,22.959 16.053,20.957 L 9.594,27.416 Z M 6.38,30.63 2.837,34.173 6.251,37.587 h 13.11 c 0.152,-1.141 0.258,-2.296 0.258,-3.478 0,-1.182 -0.106,-2.338 -0.258,-3.479 z M 0,84.883 C 9.133,83.694 17.51,80.106 24.484,74.751 L 12.694,62.961 C 8.918,65.501 4.624,67.318 0,68.217 Z m -3.215,-37.831 -3.413,-3.413 -3.544,3.542 v 12.925 c 1.158,0.156 2.329,0.265 3.529,0.265 1.164,0 2.303,-0.102 3.428,-0.25 z m 0,-6.25 h -0.577 l -0.564,0.564 1.141,1.141 z m 0,-8.134 -2.037,-2.038 h -2.721 l -2.199,2.199 v 2.721 l 2.038,2.037 h 3.011 l 1.908,-1.908 z m 0,-6.796 -1.124,1.125 0.418,0.419 h 0.706 z m 0,-17.776 c -1.125,-0.147 -2.264,-0.25 -3.428,-0.25 -1.2,0 -2.371,0.109 -3.529,0.266 v 13.053 l 3.56,3.559 3.397,-3.398 z m -6.957,19.32 h 0.868 l 0.419,-0.419 -1.287,-1.286 z m 0,15.219 1.27,-1.27 -0.563,-0.563 h -0.707 z m -3.214,25.564 c -4.579,-0.905 -8.832,-2.71 -12.577,-5.226 l -11.79,11.79 c 6.946,5.327 15.28,8.906 24.367,10.107 z m 0,-17.803 -6.409,6.409 c 1.987,1.156 4.137,2.051 6.409,2.656 z m 0,-9.594 h -4.758 l -9.29,9.289 c 1.418,1.84 3.07,3.482 4.917,4.89 l 9.131,-9.131 z m 0,-3.921 -0.419,-0.419 -1.124,1.125 h 1.543 z m 0,-6.251 h -1.705 l 1.286,1.286 0.419,-0.418 z m 0,-8.134 -9.205,-9.204 c -1.848,1.419 -3.498,3.074 -4.912,4.926 l 9.198,9.198 h 4.919 z m 0,-13.74 c -2.303,0.614 -4.479,1.526 -6.489,2.705 l 6.489,6.489 z m -9.466,18.66 -6.476,-6.477 c -1.169,2.007 -2.073,4.179 -2.679,6.477 z m -9.155,13.386 c 0.617,2.336 1.542,4.542 2.74,6.577 l 6.577,-6.577 z m 12.531,-3.215 3.398,-3.398 -3.559,-3.559 h -13.01 c -0.152,1.141 -0.258,2.297 -0.258,3.479 0,1.182 0.106,2.337 0.258,3.478 z m 6.09,-54.241 c -9.119,1.206 -17.478,4.807 -24.438,10.166 l 11.783,11.784 c 3.764,-2.543 8.044,-4.367 12.655,-5.278 z m -33.9,19.635 c -5.345,6.962 -8.931,15.32 -10.127,24.435 h 16.673 c 0.902,-4.605 2.715,-8.882 5.244,-12.644 z m 0.072,62.344 11.782,-11.781 c -2.564,-3.787 -4.402,-8.098 -5.312,-12.742 H -57.41 c 1.201,9.153 4.813,17.544 10.196,24.523 M 27.124,9.886 22.221,14.789 c 2.277,3.391 3.931,7.213 4.903,11.301 v 16.05 c -0.98,4.115 -2.653,7.96 -4.954,11.366 l 4.954,4.955 V 84.993 C 19.181,90.281 9.96,93.778 0,94.861 v 1.549 h -3.215 v 6.595 h 6.432 v 15.259 h -6.432 -6.957 V 96.41 h -3.214 V 94.849 C -25.197,93.545 -35.987,88.882 -44.804,81.814 l -1.764,1.764 -2.273,-2.273 -4.024,4.015 4.477,4.478 -10.79,10.789 -4.514,-4.514 -4.882,-4.882 15.019,-15.019 -2.252,-2.253 1.543,-1.543 C -61.389,63.527 -66.087,52.679 -67.389,40.802 h -2.297 v -3.165 h -5.854 v 6.331 h -15.258 v -6.331 -0.1 -6.857 l 21.112,-0.05 v -3.214 h 2.295 c 1.298,-11.838 5.969,-22.654 13.054,-31.486 l -1.632,-1.632 2.273,-2.273 -4.089,-4.209 -4.547,4.548 -10.79,-10.79 4.548,-4.548 v 0 l 4.919,-4.919 14.939,14.939 2.213,-2.213 1.628,1.629 c 8.83,-7.1 19.646,-11.786 31.489,-13.094 v -2.945 h 3.214 v -5.211 h -6.331 v -15.258 h 6.331 0.1 6.857 v 20.469 H 0 v 2.932 c 9.961,1.084 19.181,4.583 27.124,9.872 z"
             style="fill:#ff4d2a;fill-opacity:1;fill-rule:nonzero;stroke:none"
             id="path112" /></g><g
           id="g114"
           transform="translate(158.4246,72.7539)"><path
             d="m 0,0 c -3.858,0 -5.923,1.486 -7.583,2.681 -1.453,1.045 -2.6,1.871 -5.067,1.871 -2.47,0 -3.617,-0.826 -5.069,-1.871 C -19.379,1.486 -21.445,0 -25.302,0 c -3.855,0 -5.92,1.486 -7.58,2.682 -1.45,1.046 -2.596,1.87 -5.062,1.87 -2.465,0 -3.614,-0.824 -5.064,-1.87 C -44.667,1.486 -46.734,0 -50.59,0 c -3.855,0 -5.92,1.486 -7.58,2.681 -1.452,1.045 -2.597,1.871 -5.063,1.871 -2.464,0 -3.61,-0.824 -5.06,-1.87 C -69.952,1.488 -72.016,0 -75.872,0 c -3.855,0 -5.92,1.488 -7.578,2.682 -1.451,1.046 -2.597,1.87 -5.061,1.87 -2.465,0 -3.611,-0.824 -5.061,-1.87 C -95.231,1.486 -97.295,0 -101.151,0 c -3.855,0 -5.92,1.488 -7.579,2.682 -1.45,1.046 -2.596,1.87 -5.061,1.87 -1.191,0 -2.154,0.963 -2.154,2.154 0,1.19 0.963,2.154 2.154,2.154 3.855,0 5.92,-1.488 7.579,-2.683 1.45,-1.045 2.596,-1.869 5.061,-1.869 2.466,0 3.611,0.825 5.062,1.869 1.658,1.195 3.723,2.683 7.578,2.683 3.856,0 5.919,-1.488 7.578,-2.683 1.45,-1.045 2.596,-1.869 5.061,-1.869 2.466,0 3.612,0.825 5.062,1.869 1.658,1.195 3.723,2.683 7.577,2.683 3.857,0 5.922,-1.488 7.582,-2.683 1.45,-1.045 2.597,-1.869 5.061,-1.869 2.469,0 3.614,0.825 5.066,1.871 1.659,1.194 3.725,2.681 7.58,2.681 3.856,0 5.92,-1.488 7.58,-2.683 1.451,-1.045 2.596,-1.869 5.062,-1.869 2.468,0 3.616,0.825 5.067,1.869 1.66,1.195 3.728,2.683 7.585,2.683 3.857,0 5.923,-1.488 7.583,-2.681 C -3.614,5.133 -2.467,4.308 0,4.308 1.189,4.308 2.154,3.343 2.154,2.154 2.154,0.965 1.189,0 0,0"
             style="fill:#1f191a;fill-opacity:1;fill-rule:nonzero;stroke:none"
             id="path116" /></g><g
           id="g118"
           transform="translate(158.4246,61.3973)"><path
             d="m 0,0 c -3.858,0 -5.923,1.486 -7.583,2.681 -1.453,1.045 -2.6,1.871 -5.067,1.871 -2.47,0 -3.617,-0.826 -5.069,-1.871 C -19.379,1.486 -21.445,0 -25.302,0 c -3.855,0 -5.92,1.486 -7.58,2.682 -1.45,1.046 -2.596,1.87 -5.062,1.87 -2.465,0 -3.614,-0.824 -5.064,-1.87 C -44.667,1.486 -46.734,0 -50.59,0 c -3.855,0 -5.92,1.486 -7.58,2.681 -1.452,1.045 -2.597,1.871 -5.063,1.871 -2.464,0 -3.61,-0.824 -5.06,-1.87 C -69.952,1.488 -72.016,0 -75.872,0 c -3.855,0 -5.92,1.488 -7.578,2.682 -1.451,1.046 -2.597,1.87 -5.061,1.87 -2.465,0 -3.611,-0.824 -5.061,-1.87 C -95.231,1.486 -97.295,0 -101.151,0 c -3.855,0 -5.92,1.488 -7.579,2.682 -1.45,1.046 -2.596,1.87 -5.061,1.87 -1.191,0 -2.154,0.965 -2.154,2.154 0,1.189 0.963,2.154 2.154,2.154 3.855,0 5.92,-1.487 7.579,-2.683 1.45,-1.045 2.596,-1.869 5.061,-1.869 2.466,0 3.611,0.824 5.062,1.869 1.658,1.196 3.723,2.683 7.578,2.683 3.856,0 5.919,-1.487 7.578,-2.683 1.45,-1.045 2.596,-1.869 5.061,-1.869 2.466,0 3.612,0.824 5.062,1.869 1.658,1.196 3.723,2.683 7.577,2.683 3.857,0 5.922,-1.487 7.582,-2.683 1.45,-1.045 2.597,-1.869 5.061,-1.869 2.469,0 3.614,0.825 5.066,1.871 1.659,1.194 3.725,2.681 7.58,2.681 3.856,0 5.92,-1.487 7.58,-2.683 1.451,-1.045 2.596,-1.869 5.062,-1.869 2.468,0 3.616,0.825 5.067,1.871 1.66,1.194 3.728,2.681 7.585,2.681 3.857,0 5.923,-1.487 7.583,-2.681 C -3.614,5.133 -2.467,4.308 0,4.308 1.189,4.308 2.154,3.343 2.154,2.154 2.154,0.965 1.189,0 0,0"
             style="fill:#1f191a;fill-opacity:1;fill-rule:nonzero;stroke:none"
             id="path120" /></g></g></g></g></svg>
